<svg width="46" height="24" viewBox="0 0 46 24" fill="none" xmlns="http://www.w3.org/2000/svg">
<path d="M12.2672 23.6389C9.12948 23.6389 6.0006 22.3839 3.70424 19.9038C-0.670622 15.1796 -0.390524 7.77275 4.32891 3.39343C6.61526 1.27164 9.59075 0.16902 12.7052 0.286959C15.8207 0.404898 18.7028 1.73004 20.8225 4.01873C21.4482 4.69521 21.4082 5.7511 20.7335 6.37751C20.0578 7.00392 19.0029 6.96387 18.3772 6.2885C16.8633 4.65404 14.8037 3.70719 12.5796 3.62263C10.3566 3.53918 8.23027 4.32693 6.59637 5.84122C3.22519 8.96995 3.02512 14.2594 6.15066 17.634C9.2762 21.0086 14.5603 21.2089 17.9314 18.0802C18.6072 17.4538 19.6621 17.4938 20.2878 18.1692C20.9136 18.8457 20.8736 19.9016 20.1989 20.528C17.957 22.6086 15.1094 23.6378 12.2684 23.6378L12.2672 23.6389Z" fill="url(#paint0_linear_329_4818)"/>
<path d="M32.5999 8.358C32.5988 8.38025 32.5977 8.40139 32.5955 8.42364V8.42921L32.5933 8.45702L32.1698 13.4972C32.1142 14.1504 31.6829 14.71 31.066 14.9292C30.8838 14.9949 30.6948 15.026 30.5081 15.026C30.0624 15.026 29.6267 14.8469 29.3065 14.5142L28.0683 13.2247L20.1978 20.528C20.1778 20.5469 20.1567 20.5647 20.1367 20.5825C17.9048 22.6275 15.0827 23.6378 12.2672 23.6378C9.12948 23.6378 6.00172 22.3827 3.70424 19.9027C-0.670622 15.1784 -0.390524 7.77275 4.32891 3.39343C6.61526 1.27164 9.59186 0.16902 12.7052 0.286959C15.8196 0.404898 18.7028 1.73004 20.8225 4.01873C21.4482 4.6941 21.4082 5.74998 20.7335 6.3764C20.0578 7.00392 19.0029 6.96387 18.3772 6.28739C16.8633 4.65293 14.8037 3.70608 12.5785 3.62152C10.3566 3.53807 8.22916 4.32581 6.59637 5.84122C3.22519 8.96883 3.02512 14.2594 6.14954 17.634C9.27508 21.0086 14.5603 21.2089 17.9314 18.0802L29.7789 7.08626C29.7989 7.06734 29.8189 7.04843 29.8401 7.03063C29.8556 7.01616 29.8723 7.00281 29.889 6.98946C29.9212 6.96276 29.9557 6.93717 29.9901 6.9138C30.0268 6.88821 30.0646 6.86484 30.1024 6.84259C30.1479 6.817 30.1935 6.79252 30.2402 6.77138C30.2424 6.77027 30.2447 6.76916 30.2469 6.76805C30.2702 6.75803 30.2936 6.74802 30.318 6.738C30.3669 6.71909 30.4169 6.70129 30.4669 6.68682C30.4925 6.67903 30.5181 6.67236 30.5436 6.6668C30.5692 6.66012 30.5948 6.65456 30.6203 6.65011C30.6726 6.64009 30.7248 6.6323 30.7771 6.62785C30.8004 6.62563 30.8226 6.6234 30.846 6.6234C30.9027 6.61895 30.9605 6.61895 31.0183 6.62229C31.046 6.6234 31.0738 6.62563 31.1016 6.62897C31.125 6.63119 31.1472 6.63341 31.1705 6.63675C31.1772 6.63787 31.1828 6.63898 31.1894 6.64009C31.2072 6.64232 31.2261 6.64566 31.2439 6.64899C31.2672 6.65344 31.2917 6.65901 31.315 6.66457C31.3395 6.67013 31.3628 6.67569 31.3862 6.68237C31.3884 6.68237 31.3895 6.68349 31.3917 6.6846C31.4206 6.69239 31.4495 6.70129 31.4773 6.7113C31.5362 6.73133 31.594 6.75469 31.6518 6.78251C31.6885 6.80031 31.7241 6.81811 31.7585 6.83814C31.793 6.85817 31.8274 6.87931 31.8597 6.90045C31.9252 6.94495 31.9875 6.9928 32.0453 7.04509C32.0753 7.07179 32.1031 7.0985 32.1298 7.12631C32.1842 7.18195 32.2342 7.24202 32.2798 7.30433C32.302 7.33549 32.3243 7.36775 32.3454 7.40002C32.3654 7.43229 32.3843 7.46567 32.4032 7.50016C32.4765 7.63701 32.5299 7.78277 32.5632 7.9352C32.5721 7.97414 32.5788 8.01197 32.5844 8.05091C32.5988 8.15105 32.6044 8.25452 32.5999 8.358Z" fill="#9CA3AF"/>
<path d="M31.4773 6.7113C31.5362 6.73133 31.5951 6.75469 31.6518 6.78251C31.594 6.75469 31.5362 6.73133 31.4773 6.7113Z" fill="url(#paint1_linear_329_4818)"/>
<path d="M31.8597 6.90045C31.9241 6.94273 31.9864 6.99057 32.0453 7.04509C31.9875 6.9928 31.9252 6.94496 31.8597 6.90045Z" fill="url(#paint2_linear_329_4818)"/>
<path d="M32.1575 7.15413C32.202 7.20198 32.2431 7.25204 32.2798 7.30434C32.2342 7.24203 32.1842 7.18195 32.1298 7.12632C32.1398 7.13522 32.1487 7.14412 32.1575 7.15413Z" fill="url(#paint3_linear_329_4818)"/>
<path d="M32.4032 7.50016C32.4788 7.63813 32.5321 7.78499 32.5633 7.9352C32.5299 7.78277 32.4766 7.63701 32.4032 7.50016Z" fill="url(#paint4_linear_329_4818)"/>
<path d="M32.6 8.358C32.6045 8.25452 32.5989 8.15105 32.5844 8.05091C32.6 8.15216 32.6045 8.25564 32.6 8.358Z" fill="url(#paint5_linear_329_4818)"/>
<path d="M14.9193 17.1255C15.0082 17.1701 15.0993 17.2057 15.1916 17.2335C15.0982 17.2057 15.0071 17.1701 14.9193 17.1255Z" fill="url(#paint6_linear_329_4818)"/>
<path d="M16.6088 17.0076C16.5232 17.0677 16.4321 17.1178 16.3387 17.1589C16.4321 17.1167 16.5232 17.0666 16.6088 17.0076Z" fill="url(#paint7_linear_329_4818)"/>
<path d="M42.2689 20.528C40.0937 22.5463 37.296 23.6433 34.3461 23.6433C34.1949 23.6433 34.0449 23.6411 33.8937 23.6344C30.7782 23.5165 27.8961 22.1914 25.7764 19.9027C25.1506 19.2273 25.1895 18.1714 25.8653 17.545C26.5411 16.9175 27.5959 16.9575 28.2217 17.634C29.7356 19.2685 31.7941 20.2153 34.0193 20.2999C36.2423 20.3844 38.3697 19.5956 40.0025 18.0802C43.3737 14.9526 43.5738 9.662 40.4482 6.28739C37.3227 2.91277 32.0386 2.7125 28.6674 5.84122L19.5965 14.2583L16.7977 16.8563C16.7377 16.9119 16.6743 16.962 16.6088 17.0076C16.5232 17.0666 16.432 17.1166 16.3387 17.1589C16.2364 17.2045 16.1297 17.239 16.0219 17.2624C15.9797 17.2724 15.9363 17.2791 15.8941 17.2858C15.8185 17.2958 15.7407 17.3013 15.664 17.3013C15.6362 17.3013 15.6084 17.3002 15.5795 17.2991C15.5673 17.2991 15.5551 17.2991 15.5417 17.2969C15.5195 17.2947 15.4961 17.2936 15.4739 17.2902C15.445 17.2869 15.4172 17.2835 15.3883 17.278C15.3817 17.278 15.3739 17.2758 15.3672 17.2746C15.345 17.2702 15.3228 17.2657 15.3005 17.2613C15.2905 17.2591 15.2805 17.2568 15.2705 17.2546C15.2449 17.2479 15.2183 17.2413 15.1916 17.2335C15.0993 17.2057 15.0082 17.17 14.9193 17.1255C14.887 17.11 14.8559 17.0922 14.8248 17.0744C14.817 17.0699 14.8104 17.0655 14.8026 17.061C14.7803 17.0477 14.7581 17.0332 14.7359 17.0176C14.7025 16.9965 14.6692 16.9731 14.6381 16.9475C14.6192 16.9331 14.6003 16.9175 14.5825 16.9019C14.5747 16.8963 14.568 16.8908 14.5614 16.883C14.5447 16.8696 14.5291 16.8552 14.5147 16.8407C14.4302 16.7617 14.3558 16.6738 14.2902 16.5781C14.2746 16.5559 14.259 16.5325 14.2446 16.508C14.2246 16.4758 14.2057 16.4435 14.1879 16.409C14.1701 16.3756 14.1535 16.3411 14.139 16.3066C14.1279 16.2822 14.1179 16.2577 14.1079 16.2321C14.1068 16.2277 14.1045 16.2243 14.1034 16.2199C14.0979 16.2065 14.0934 16.1943 14.0901 16.182C14.079 16.152 14.0701 16.122 14.0612 16.0919C14.0612 16.0897 14.0612 16.0875 14.059 16.0852C14.0501 16.0519 14.0412 16.0185 14.0345 15.984C14.0334 15.9806 14.0323 15.9773 14.0323 15.974C14.0245 15.9384 14.0179 15.9028 14.0134 15.866C14.0123 15.8638 14.0123 15.8627 14.0123 15.8605C14.0079 15.826 14.0034 15.7904 14.0012 15.7548C14.0012 15.7503 14.0012 15.7448 14.0012 15.7392C13.9978 15.7058 13.9967 15.6713 13.9967 15.6368C13.9967 15.579 14.0001 15.5211 14.0056 15.4622L14.5247 10.403C14.5914 9.75101 15.0338 9.19804 15.6551 8.98997C16.2753 8.78302 16.9611 8.95771 17.4057 9.43837L18.5517 10.6767L26.4 3.39343C26.42 3.37451 26.4411 3.35671 26.4622 3.3378C31.1828 -0.983669 38.5376 -0.685484 42.8935 4.01873C47.2684 8.74297 46.9883 16.1487 42.2689 20.528Z" fill="#9CA3AF"/>
<defs>
<linearGradient id="paint0_linear_329_4818" x1="3.98212" y1="20.2454" x2="33.8563" y2="-9.5984" gradientUnits="userSpaceOnUse">
<stop stopColor="#D34A94"/>
<stop offset="1" stopColor="#4F2776"/>
</linearGradient>
<linearGradient id="paint1_linear_329_4818" x1="31.5018" y1="6.81033" x2="31.6164" y2="6.69584" gradientUnits="userSpaceOnUse">
<stop stopColor="#D34A94"/>
<stop offset="1" stopColor="#4F2776"/>
</linearGradient>
<linearGradient id="paint2_linear_329_4818" x1="31.9275" y1="6.99836" x2="31.9731" y2="6.95279" gradientUnits="userSpaceOnUse">
<stop stopColor="#D34A94"/>
<stop offset="1" stopColor="#4F2776"/>
</linearGradient>
<linearGradient id="paint3_linear_329_4818" x1="32.1876" y1="7.23313" x2="32.2198" y2="7.2009" gradientUnits="userSpaceOnUse">
<stop stopColor="#D34A94"/>
<stop offset="1" stopColor="#4F2776"/>
</linearGradient>
<linearGradient id="paint4_linear_329_4818" x1="32.3165" y1="7.88402" x2="32.6203" y2="7.58058" gradientUnits="userSpaceOnUse">
<stop stopColor="#D34A94"/>
<stop offset="1" stopColor="#4F2776"/>
</linearGradient>
<linearGradient id="paint5_linear_329_4818" x1="32.4143" y1="8.38136" x2="32.7369" y2="8.05681" gradientUnits="userSpaceOnUse">
<stop stopColor="#D34A94"/>
<stop offset="1" stopColor="#4F2776"/>
</linearGradient>
<linearGradient id="paint6_linear_329_4818" x1="14.9626" y1="17.2724" x2="15.1451" y2="17.0912" gradientUnits="userSpaceOnUse">
<stop stopColor="#D34A94"/>
<stop offset="1" stopColor="#4F2776"/>
</linearGradient>
<linearGradient id="paint7_linear_329_4818" x1="16.2364" y1="17.3203" x2="16.7026" y2="16.8557" gradientUnits="userSpaceOnUse">
<stop stopColor="#D34A94"/>
<stop offset="1" stopColor="#4F2776"/>
</linearGradient>
</defs>
</svg>
