<svg width="1440" height="654" viewBox="0 0 1440 654" fill="none" xmlns="http://www.w3.org/2000/svg">
<g clip-path="url(#clip0_234_3441)">
<path d="M0 0.5H31.5V32" stroke="#F1F5F9"/>
<path d="M32 0.5H63.5V32" stroke="#F1F5F9"/>
<path d="M64 0.5H95.5V32" stroke="#F1F5F9"/>
<path d="M96 0.5H127.5V32" stroke="#F1F5F9"/>
<path d="M128 0.5H159.5V32" stroke="#F1F5F9"/>
<path d="M160 0.5H191.5V32" stroke="#F1F5F9"/>
<path d="M192 0.5H223.5V32" stroke="#F1F5F9"/>
<path d="M224 0.5H255.5V32" stroke="#F1F5F9"/>
<path d="M256 0.5H287.5V32" stroke="#F1F5F9"/>
<path d="M288 0.5H319.5V32" stroke="#F1F5F9"/>
<path d="M320 0.5H351.5V32" stroke="#F1F5F9"/>
<path d="M352 0.5H383.5V32" stroke="#F1F5F9"/>
<path d="M384 0.5H415.5V32" stroke="#F1F5F9"/>
<path d="M416 0.5H447.5V32" stroke="#F1F5F9"/>
<path d="M448 0.5H479.5V32" stroke="#F1F5F9"/>
<path d="M480 0.5H511.5V32" stroke="#F1F5F9"/>
<path d="M512 0.5H543.5V32" stroke="#F1F5F9"/>
<path d="M544 0.5H575.5V32" stroke="#F1F5F9"/>
<path d="M576 0.5H607.5V32" stroke="#F1F5F9"/>
<path d="M608 0.5H639.5V32" stroke="#F1F5F9"/>
<path d="M640 0.5H671.5V32" stroke="#F1F5F9"/>
<path d="M672 0.5H703.5V32" stroke="#F1F5F9"/>
<path d="M704 0.5H735.5V32" stroke="#F1F5F9"/>
<path d="M736 0.5H767.5V32" stroke="#F1F5F9"/>
<path d="M768 0.5H799.5V32" stroke="#F1F5F9"/>
<path d="M800 0.5H831.5V32" stroke="#F1F5F9"/>
<path d="M832 0.5H863.5V32" stroke="#F1F5F9"/>
<path d="M864 0.5H895.5V32" stroke="#F1F5F9"/>
<path d="M896 0.5H927.5V32" stroke="#F1F5F9"/>
<path d="M928 0.5H959.5V32" stroke="#F1F5F9"/>
<path d="M960 0.5H991.5V32" stroke="#F1F5F9"/>
<path d="M992 0.5H1023.5V32" stroke="#F1F5F9"/>
<path d="M1024 0.5H1055.5V32" stroke="#F1F5F9"/>
<path d="M1056 0.5H1087.5V32" stroke="#F1F5F9"/>
<path d="M1088 0.5H1119.5V32" stroke="#F1F5F9"/>
<path d="M1120 0.5H1151.5V32" stroke="#F1F5F9"/>
<path d="M1152 0.5H1183.5V32" stroke="#F1F5F9"/>
<path d="M1184 0.5H1215.5V32" stroke="#F1F5F9"/>
<path d="M1216 0.5H1247.5V32" stroke="#F1F5F9"/>
<path d="M1248 0.5H1279.5V32" stroke="#F1F5F9"/>
<path d="M1280 0.5H1311.5V32" stroke="#F1F5F9"/>
<path d="M1312 0.5H1343.5V32" stroke="#F1F5F9"/>
<path d="M1344 0.5H1375.5V32" stroke="#F1F5F9"/>
<path d="M1376 0.5H1407.5V32" stroke="#F1F5F9"/>
<path d="M0 32.5H31.5V64" stroke="#F1F5F9"/>
<path d="M32 32.5H63.5V64" stroke="#F1F5F9"/>
<path d="M64 32.5H95.5V64" stroke="#F1F5F9"/>
<path d="M96 32.5H127.5V64" stroke="#F1F5F9"/>
<path d="M128 32.5H159.5V64" stroke="#F1F5F9"/>
<path d="M160 32.5H191.5V64" stroke="#F1F5F9"/>
<path d="M192 32.5H223.5V64" stroke="#F1F5F9"/>
<path d="M224 32.5H255.5V64" stroke="#F1F5F9"/>
<path d="M256 32.5H287.5V64" stroke="#F1F5F9"/>
<path d="M288 32.5H319.5V64" stroke="#F1F5F9"/>
<path d="M320 32.5H351.5V64" stroke="#F1F5F9"/>
<path d="M352 32.5H383.5V64" stroke="#F1F5F9"/>
<path d="M384 32.5H415.5V64" stroke="#F1F5F9"/>
<path d="M416 32.5H447.5V64" stroke="#F1F5F9"/>
<path d="M448 32.5H479.5V64" stroke="#F1F5F9"/>
<path d="M480 32.5H511.5V64" stroke="#F1F5F9"/>
<path d="M512 32.5H543.5V64" stroke="#F1F5F9"/>
<path d="M544 32.5H575.5V64" stroke="#F1F5F9"/>
<path d="M576 32.5H607.5V64" stroke="#F1F5F9"/>
<path d="M608 32.5H639.5V64" stroke="#F1F5F9"/>
<path d="M640 32.5H671.5V64" stroke="#F1F5F9"/>
<path d="M672 32.5H703.5V64" stroke="#F1F5F9"/>
<path d="M704 32.5H735.5V64" stroke="#F1F5F9"/>
<path d="M736 32.5H767.5V64" stroke="#F1F5F9"/>
<path d="M768 32.5H799.5V64" stroke="#F1F5F9"/>
<path d="M800 32.5H831.5V64" stroke="#F1F5F9"/>
<path d="M832 32.5H863.5V64" stroke="#F1F5F9"/>
<path d="M864 32.5H895.5V64" stroke="#F1F5F9"/>
<path d="M896 32.5H927.5V64" stroke="#F1F5F9"/>
<path d="M928 32.5H959.5V64" stroke="#F1F5F9"/>
<path d="M960 32.5H991.5V64" stroke="#F1F5F9"/>
<path d="M992 32.5H1023.5V64" stroke="#F1F5F9"/>
<path d="M1024 32.5H1055.5V64" stroke="#F1F5F9"/>
<path d="M1056 32.5H1087.5V64" stroke="#F1F5F9"/>
<path d="M1088 32.5H1119.5V64" stroke="#F1F5F9"/>
<path d="M1120 32.5H1151.5V64" stroke="#F1F5F9"/>
<path d="M1152 32.5H1183.5V64" stroke="#F1F5F9"/>
<path d="M1184 32.5H1215.5V64" stroke="#F1F5F9"/>
<path d="M1216 32.5H1247.5V64" stroke="#F1F5F9"/>
<path d="M1248 32.5H1279.5V64" stroke="#F1F5F9"/>
<path d="M1280 32.5H1311.5V64" stroke="#F1F5F9"/>
<path d="M1312 32.5H1343.5V64" stroke="#F1F5F9"/>
<path d="M1344 32.5H1375.5V64" stroke="#F1F5F9"/>
<path d="M1376 32.5H1407.5V64" stroke="#F1F5F9"/>
<path d="M0 64.5H31.5V96" stroke="#F1F5F9"/>
<path d="M32 64.5H63.5V96" stroke="#F1F5F9"/>
<path d="M64 64.5H95.5V96" stroke="#F1F5F9"/>
<path d="M96 64.5H127.5V96" stroke="#F1F5F9"/>
<path d="M128 64.5H159.5V96" stroke="#F1F5F9"/>
<path d="M160 64.5H191.5V96" stroke="#F1F5F9"/>
<path d="M192 64.5H223.5V96" stroke="#F1F5F9"/>
<path d="M224 64.5H255.5V96" stroke="#F1F5F9"/>
<path d="M256 64.5H287.5V96" stroke="#F1F5F9"/>
<path d="M288 64.5H319.5V96" stroke="#F1F5F9"/>
<path d="M320 64.5H351.5V96" stroke="#F1F5F9"/>
<path d="M352 64.5H383.5V96" stroke="#F1F5F9"/>
<path d="M384 64.5H415.5V96" stroke="#F1F5F9"/>
<path d="M416 64.5H447.5V96" stroke="#F1F5F9"/>
<path d="M448 64.5H479.5V96" stroke="#F1F5F9"/>
<path d="M480 64.5H511.5V96" stroke="#F1F5F9"/>
<path d="M512 64.5H543.5V96" stroke="#F1F5F9"/>
<path d="M544 64.5H575.5V96" stroke="#F1F5F9"/>
<path d="M576 64.5H607.5V96" stroke="#F1F5F9"/>
<path d="M608 64.5H639.5V96" stroke="#F1F5F9"/>
<path d="M640 64.5H671.5V96" stroke="#F1F5F9"/>
<path d="M672 64.5H703.5V96" stroke="#F1F5F9"/>
<path d="M704 64.5H735.5V96" stroke="#F1F5F9"/>
<path d="M736 64.5H767.5V96" stroke="#F1F5F9"/>
<path d="M768 64.5H799.5V96" stroke="#F1F5F9"/>
<path d="M800 64.5H831.5V96" stroke="#F1F5F9"/>
<path d="M832 64.5H863.5V96" stroke="#F1F5F9"/>
<path d="M864 64.5H895.5V96" stroke="#F1F5F9"/>
<path d="M896 64.5H927.5V96" stroke="#F1F5F9"/>
<path d="M928 64.5H959.5V96" stroke="#F1F5F9"/>
<path d="M960 64.5H991.5V96" stroke="#F1F5F9"/>
<path d="M992 64.5H1023.5V96" stroke="#F1F5F9"/>
<path d="M1024 64.5H1055.5V96" stroke="#F1F5F9"/>
<path d="M1056 64.5H1087.5V96" stroke="#F1F5F9"/>
<path d="M1088 64.5H1119.5V96" stroke="#F1F5F9"/>
<path d="M1120 64.5H1151.5V96" stroke="#F1F5F9"/>
<path d="M1152 64.5H1183.5V96" stroke="#F1F5F9"/>
<path d="M1184 64.5H1215.5V96" stroke="#F1F5F9"/>
<path d="M1216 64.5H1247.5V96" stroke="#F1F5F9"/>
<path d="M1248 64.5H1279.5V96" stroke="#F1F5F9"/>
<path d="M1280 64.5H1311.5V96" stroke="#F1F5F9"/>
<path d="M1312 64.5H1343.5V96" stroke="#F1F5F9"/>
<path d="M1344 64.5H1375.5V96" stroke="#F1F5F9"/>
<path d="M1376 64.5H1407.5V96" stroke="#F1F5F9"/>
<path d="M0 96.5H31.5V128" stroke="#F1F5F9"/>
<path d="M32 96.5H63.5V128" stroke="#F1F5F9"/>
<path d="M64 96.5H95.5V128" stroke="#F1F5F9"/>
<path d="M96 96.5H127.5V128" stroke="#F1F5F9"/>
<path d="M128 96.5H159.5V128" stroke="#F1F5F9"/>
<path d="M160 96.5H191.5V128" stroke="#F1F5F9"/>
<path d="M192 96.5H223.5V128" stroke="#F1F5F9"/>
<path d="M224 96.5H255.5V128" stroke="#F1F5F9"/>
<path d="M256 96.5H287.5V128" stroke="#F1F5F9"/>
<path d="M288 96.5H319.5V128" stroke="#F1F5F9"/>
<path d="M320 96.5H351.5V128" stroke="#F1F5F9"/>
<path d="M352 96.5H383.5V128" stroke="#F1F5F9"/>
<path d="M384 96.5H415.5V128" stroke="#F1F5F9"/>
<path d="M416 96.5H447.5V128" stroke="#F1F5F9"/>
<path d="M448 96.5H479.5V128" stroke="#F1F5F9"/>
<path d="M480 96.5H511.5V128" stroke="#F1F5F9"/>
<path d="M512 96.5H543.5V128" stroke="#F1F5F9"/>
<path d="M544 96.5H575.5V128" stroke="#F1F5F9"/>
<path d="M576 96.5H607.5V128" stroke="#F1F5F9"/>
<path d="M608 96.5H639.5V128" stroke="#F1F5F9"/>
<path d="M640 96.5H671.5V128" stroke="#F1F5F9"/>
<path d="M672 96.5H703.5V128" stroke="#F1F5F9"/>
<path d="M704 96.5H735.5V128" stroke="#F1F5F9"/>
<path d="M736 96.5H767.5V128" stroke="#F1F5F9"/>
<path d="M768 96.5H799.5V128" stroke="#F1F5F9"/>
<path d="M800 96.5H831.5V128" stroke="#F1F5F9"/>
<path d="M832 96.5H863.5V128" stroke="#F1F5F9"/>
<path d="M864 96.5H895.5V128" stroke="#F1F5F9"/>
<path d="M896 96.5H927.5V128" stroke="#F1F5F9"/>
<path d="M928 96.5H959.5V128" stroke="#F1F5F9"/>
<path d="M960 96.5H991.5V128" stroke="#F1F5F9"/>
<path d="M992 96.5H1023.5V128" stroke="#F1F5F9"/>
<path d="M1024 96.5H1055.5V128" stroke="#F1F5F9"/>
<path d="M1056 96.5H1087.5V128" stroke="#F1F5F9"/>
<path d="M1088 96.5H1119.5V128" stroke="#F1F5F9"/>
<path d="M1120 96.5H1151.5V128" stroke="#F1F5F9"/>
<path d="M1152 96.5H1183.5V128" stroke="#F1F5F9"/>
<path d="M1184 96.5H1215.5V128" stroke="#F1F5F9"/>
<path d="M1216 96.5H1247.5V128" stroke="#F1F5F9"/>
<path d="M1248 96.5H1279.5V128" stroke="#F1F5F9"/>
<path d="M1280 96.5H1311.5V128" stroke="#F1F5F9"/>
<path d="M1312 96.5H1343.5V128" stroke="#F1F5F9"/>
<path d="M1344 96.5H1375.5V128" stroke="#F1F5F9"/>
<path d="M1376 96.5H1407.5V128" stroke="#F1F5F9"/>
<path d="M0 128.5H31.5V160" stroke="#F1F5F9"/>
<path d="M32 128.5H63.5V160" stroke="#F1F5F9"/>
<path d="M64 128.5H95.5V160" stroke="#F1F5F9"/>
<path d="M96 128.5H127.5V160" stroke="#F1F5F9"/>
<path d="M128 128.5H159.5V160" stroke="#F1F5F9"/>
<path d="M160 128.5H191.5V160" stroke="#F1F5F9"/>
<path d="M192 128.5H223.5V160" stroke="#F1F5F9"/>
<path d="M224 128.5H255.5V160" stroke="#F1F5F9"/>
<path d="M256 128.5H287.5V160" stroke="#F1F5F9"/>
<path d="M288 128.5H319.5V160" stroke="#F1F5F9"/>
<path d="M320 128.5H351.5V160" stroke="#F1F5F9"/>
<path d="M352 128.5H383.5V160" stroke="#F1F5F9"/>
<path d="M384 128.5H415.5V160" stroke="#F1F5F9"/>
<path d="M416 128.5H447.5V160" stroke="#F1F5F9"/>
<path d="M448 128.5H479.5V160" stroke="#F1F5F9"/>
<path d="M480 128.5H511.5V160" stroke="#F1F5F9"/>
<path d="M512 128.5H543.5V160" stroke="#F1F5F9"/>
<path d="M544 128.5H575.5V160" stroke="#F1F5F9"/>
<path d="M576 128.5H607.5V160" stroke="#F1F5F9"/>
<path d="M608 128.5H639.5V160" stroke="#F1F5F9"/>
<path d="M640 128.5H671.5V160" stroke="#F1F5F9"/>
<path d="M672 128.5H703.5V160" stroke="#F1F5F9"/>
<path d="M704 128.5H735.5V160" stroke="#F1F5F9"/>
<path d="M736 128.5H767.5V160" stroke="#F1F5F9"/>
<path d="M768 128.5H799.5V160" stroke="#F1F5F9"/>
<path d="M800 128.5H831.5V160" stroke="#F1F5F9"/>
<path d="M832 128.5H863.5V160" stroke="#F1F5F9"/>
<path d="M864 128.5H895.5V160" stroke="#F1F5F9"/>
<path d="M896 128.5H927.5V160" stroke="#F1F5F9"/>
<path d="M928 128.5H959.5V160" stroke="#F1F5F9"/>
<path d="M960 128.5H991.5V160" stroke="#F1F5F9"/>
<path d="M992 128.5H1023.5V160" stroke="#F1F5F9"/>
<path d="M1024 128.5H1055.5V160" stroke="#F1F5F9"/>
<path d="M1056 128.5H1087.5V160" stroke="#F1F5F9"/>
<path d="M1088 128.5H1119.5V160" stroke="#F1F5F9"/>
<path d="M1120 128.5H1151.5V160" stroke="#F1F5F9"/>
<path d="M1152 128.5H1183.5V160" stroke="#F1F5F9"/>
<path d="M1184 128.5H1215.5V160" stroke="#F1F5F9"/>
<path d="M1216 128.5H1247.5V160" stroke="#F1F5F9"/>
<path d="M1248 128.5H1279.5V160" stroke="#F1F5F9"/>
<path d="M1280 128.5H1311.5V160" stroke="#F1F5F9"/>
<path d="M1312 128.5H1343.5V160" stroke="#F1F5F9"/>
<path d="M1344 128.5H1375.5V160" stroke="#F1F5F9"/>
<path d="M1376 128.5H1407.5V160" stroke="#F1F5F9"/>
<path d="M0 160.5H31.5V192" stroke="#F1F5F9"/>
<path d="M32 160.5H63.5V192" stroke="#F1F5F9"/>
<path d="M64 160.5H95.5V192" stroke="#F1F5F9"/>
<path d="M96 160.5H127.5V192" stroke="#F1F5F9"/>
<path d="M128 160.5H159.5V192" stroke="#F1F5F9"/>
<path d="M160 160.5H191.5V192" stroke="#F1F5F9"/>
<path d="M192 160.5H223.5V192" stroke="#F1F5F9"/>
<path d="M224 160.5H255.5V192" stroke="#F1F5F9"/>
<path d="M256 160.5H287.5V192" stroke="#F1F5F9"/>
<path d="M288 160.5H319.5V192" stroke="#F1F5F9"/>
<path d="M320 160.5H351.5V192" stroke="#F1F5F9"/>
<path d="M352 160.5H383.5V192" stroke="#F1F5F9"/>
<path d="M384 160.5H415.5V192" stroke="#F1F5F9"/>
<path d="M416 160.5H447.5V192" stroke="#F1F5F9"/>
<path d="M448 160.5H479.5V192" stroke="#F1F5F9"/>
<path d="M480 160.5H511.5V192" stroke="#F1F5F9"/>
<path d="M512 160.5H543.5V192" stroke="#F1F5F9"/>
<path d="M544 160.5H575.5V192" stroke="#F1F5F9"/>
<path d="M576 160.5H607.5V192" stroke="#F1F5F9"/>
<path d="M608 160.5H639.5V192" stroke="#F1F5F9"/>
<path d="M640 160.5H671.5V192" stroke="#F1F5F9"/>
<path d="M672 160.5H703.5V192" stroke="#F1F5F9"/>
<path d="M704 160.5H735.5V192" stroke="#F1F5F9"/>
<path d="M736 160.5H767.5V192" stroke="#F1F5F9"/>
<path d="M768 160.5H799.5V192" stroke="#F1F5F9"/>
<path d="M800 160.5H831.5V192" stroke="#F1F5F9"/>
<path d="M832 160.5H863.5V192" stroke="#F1F5F9"/>
<path d="M864 160.5H895.5V192" stroke="#F1F5F9"/>
<path d="M896 160.5H927.5V192" stroke="#F1F5F9"/>
<path d="M928 160.5H959.5V192" stroke="#F1F5F9"/>
<path d="M960 160.5H991.5V192" stroke="#F1F5F9"/>
<path d="M992 160.5H1023.5V192" stroke="#F1F5F9"/>
<path d="M1024 160.5H1055.5V192" stroke="#F1F5F9"/>
<path d="M1056 160.5H1087.5V192" stroke="#F1F5F9"/>
<path d="M1088 160.5H1119.5V192" stroke="#F1F5F9"/>
<path d="M1120 160.5H1151.5V192" stroke="#F1F5F9"/>
<path d="M1152 160.5H1183.5V192" stroke="#F1F5F9"/>
<path d="M1184 160.5H1215.5V192" stroke="#F1F5F9"/>
<path d="M1216 160.5H1247.5V192" stroke="#F1F5F9"/>
<path d="M1248 160.5H1279.5V192" stroke="#F1F5F9"/>
<path d="M1280 160.5H1311.5V192" stroke="#F1F5F9"/>
<path d="M1312 160.5H1343.5V192" stroke="#F1F5F9"/>
<path d="M1344 160.5H1375.5V192" stroke="#F1F5F9"/>
<path d="M1376 160.5H1407.5V192" stroke="#F1F5F9"/>
<path d="M0 192.5H31.5V224" stroke="#F1F5F9"/>
<path d="M32 192.5H63.5V224" stroke="#F1F5F9"/>
<path d="M64 192.5H95.5V224" stroke="#F1F5F9"/>
<path d="M96 192.5H127.5V224" stroke="#F1F5F9"/>
<path d="M128 192.5H159.5V224" stroke="#F1F5F9"/>
<path d="M160 192.5H191.5V224" stroke="#F1F5F9"/>
<path d="M192 192.5H223.5V224" stroke="#F1F5F9"/>
<path d="M224 192.5H255.5V224" stroke="#F1F5F9"/>
<path d="M256 192.5H287.5V224" stroke="#F1F5F9"/>
<path d="M288 192.5H319.5V224" stroke="#F1F5F9"/>
<path d="M320 192.5H351.5V224" stroke="#F1F5F9"/>
<path d="M352 192.5H383.5V224" stroke="#F1F5F9"/>
<path d="M384 192.5H415.5V224" stroke="#F1F5F9"/>
<path d="M416 192.5H447.5V224" stroke="#F1F5F9"/>
<path d="M448 192.5H479.5V224" stroke="#F1F5F9"/>
<path d="M480 192.5H511.5V224" stroke="#F1F5F9"/>
<path d="M512 192.5H543.5V224" stroke="#F1F5F9"/>
<path d="M544 192.5H575.5V224" stroke="#F1F5F9"/>
<path d="M576 192.5H607.5V224" stroke="#F1F5F9"/>
<path d="M608 192.5H639.5V224" stroke="#F1F5F9"/>
<path d="M640 192.5H671.5V224" stroke="#F1F5F9"/>
<path d="M672 192.5H703.5V224" stroke="#F1F5F9"/>
<path d="M704 192.5H735.5V224" stroke="#F1F5F9"/>
<path d="M736 192.5H767.5V224" stroke="#F1F5F9"/>
<path d="M768 192.5H799.5V224" stroke="#F1F5F9"/>
<path d="M800 192.5H831.5V224" stroke="#F1F5F9"/>
<path d="M832 192.5H863.5V224" stroke="#F1F5F9"/>
<path d="M864 192.5H895.5V224" stroke="#F1F5F9"/>
<path d="M896 192.5H927.5V224" stroke="#F1F5F9"/>
<path d="M928 192.5H959.5V224" stroke="#F1F5F9"/>
<path d="M960 192.5H991.5V224" stroke="#F1F5F9"/>
<path d="M992 192.5H1023.5V224" stroke="#F1F5F9"/>
<path d="M1024 192.5H1055.5V224" stroke="#F1F5F9"/>
<path d="M1056 192.5H1087.5V224" stroke="#F1F5F9"/>
<path d="M1088 192.5H1119.5V224" stroke="#F1F5F9"/>
<path d="M1120 192.5H1151.5V224" stroke="#F1F5F9"/>
<path d="M1152 192.5H1183.5V224" stroke="#F1F5F9"/>
<path d="M1184 192.5H1215.5V224" stroke="#F1F5F9"/>
<path d="M1216 192.5H1247.5V224" stroke="#F1F5F9"/>
<path d="M1248 192.5H1279.5V224" stroke="#F1F5F9"/>
<path d="M1280 192.5H1311.5V224" stroke="#F1F5F9"/>
<path d="M1312 192.5H1343.5V224" stroke="#F1F5F9"/>
<path d="M1344 192.5H1375.5V224" stroke="#F1F5F9"/>
<path d="M1376 192.5H1407.5V224" stroke="#F1F5F9"/>
<path d="M0 224.5H31.5V256" stroke="#F1F5F9"/>
<path d="M32 224.5H63.5V256" stroke="#F1F5F9"/>
<path d="M64 224.5H95.5V256" stroke="#F1F5F9"/>
<path d="M96 224.5H127.5V256" stroke="#F1F5F9"/>
<path d="M128 224.5H159.5V256" stroke="#F1F5F9"/>
<path d="M160 224.5H191.5V256" stroke="#F1F5F9"/>
<path d="M192 224.5H223.5V256" stroke="#F1F5F9"/>
<path d="M224 224.5H255.5V256" stroke="#F1F5F9"/>
<path d="M256 224.5H287.5V256" stroke="#F1F5F9"/>
<path d="M288 224.5H319.5V256" stroke="#F1F5F9"/>
<path d="M320 224.5H351.5V256" stroke="#F1F5F9"/>
<path d="M352 224.5H383.5V256" stroke="#F1F5F9"/>
<path d="M384 224.5H415.5V256" stroke="#F1F5F9"/>
<path d="M416 224.5H447.5V256" stroke="#F1F5F9"/>
<path d="M448 224.5H479.5V256" stroke="#F1F5F9"/>
<path d="M480 224.5H511.5V256" stroke="#F1F5F9"/>
<path d="M512 224.5H543.5V256" stroke="#F1F5F9"/>
<path d="M544 224.5H575.5V256" stroke="#F1F5F9"/>
<path d="M576 224.5H607.5V256" stroke="#F1F5F9"/>
<path d="M608 224.5H639.5V256" stroke="#F1F5F9"/>
<path d="M640 224.5H671.5V256" stroke="#F1F5F9"/>
<path d="M672 224.5H703.5V256" stroke="#F1F5F9"/>
<path d="M704 224.5H735.5V256" stroke="#F1F5F9"/>
<path d="M736 224.5H767.5V256" stroke="#F1F5F9"/>
<path d="M768 224.5H799.5V256" stroke="#F1F5F9"/>
<path d="M800 224.5H831.5V256" stroke="#F1F5F9"/>
<path d="M832 224.5H863.5V256" stroke="#F1F5F9"/>
<path d="M864 224.5H895.5V256" stroke="#F1F5F9"/>
<path d="M896 224.5H927.5V256" stroke="#F1F5F9"/>
<path d="M928 224.5H959.5V256" stroke="#F1F5F9"/>
<path d="M960 224.5H991.5V256" stroke="#F1F5F9"/>
<path d="M992 224.5H1023.5V256" stroke="#F1F5F9"/>
<path d="M1024 224.5H1055.5V256" stroke="#F1F5F9"/>
<path d="M1056 224.5H1087.5V256" stroke="#F1F5F9"/>
<path d="M1088 224.5H1119.5V256" stroke="#F1F5F9"/>
<path d="M1120 224.5H1151.5V256" stroke="#F1F5F9"/>
<path d="M1152 224.5H1183.5V256" stroke="#F1F5F9"/>
<path d="M1184 224.5H1215.5V256" stroke="#F1F5F9"/>
<path d="M1216 224.5H1247.5V256" stroke="#F1F5F9"/>
<path d="M1248 224.5H1279.5V256" stroke="#F1F5F9"/>
<path d="M1280 224.5H1311.5V256" stroke="#F1F5F9"/>
<path d="M1312 224.5H1343.5V256" stroke="#F1F5F9"/>
<path d="M1344 224.5H1375.5V256" stroke="#F1F5F9"/>
<path d="M1376 224.5H1407.5V256" stroke="#F1F5F9"/>
<path d="M0 256.5H31.5V288" stroke="#F1F5F9"/>
<path d="M32 256.5H63.5V288" stroke="#F1F5F9"/>
<path d="M64 256.5H95.5V288" stroke="#F1F5F9"/>
<path d="M96 256.5H127.5V288" stroke="#F1F5F9"/>
<path d="M128 256.5H159.5V288" stroke="#F1F5F9"/>
<path d="M160 256.5H191.5V288" stroke="#F1F5F9"/>
<path d="M192 256.5H223.5V288" stroke="#F1F5F9"/>
<path d="M224 256.5H255.5V288" stroke="#F1F5F9"/>
<path d="M256 256.5H287.5V288" stroke="#F1F5F9"/>
<path d="M288 256.5H319.5V288" stroke="#F1F5F9"/>
<path d="M320 256.5H351.5V288" stroke="#F1F5F9"/>
<path d="M352 256.5H383.5V288" stroke="#F1F5F9"/>
<path d="M384 256.5H415.5V288" stroke="#F1F5F9"/>
<path d="M416 256.5H447.5V288" stroke="#F1F5F9"/>
<path d="M448 256.5H479.5V288" stroke="#F1F5F9"/>
<path d="M480 256.5H511.5V288" stroke="#F1F5F9"/>
<path d="M512 256.5H543.5V288" stroke="#F1F5F9"/>
<path d="M544 256.5H575.5V288" stroke="#F1F5F9"/>
<path d="M576 256.5H607.5V288" stroke="#F1F5F9"/>
<path d="M608 256.5H639.5V288" stroke="#F1F5F9"/>
<path d="M640 256.5H671.5V288" stroke="#F1F5F9"/>
<path d="M672 256.5H703.5V288" stroke="#F1F5F9"/>
<path d="M704 256.5H735.5V288" stroke="#F1F5F9"/>
<path d="M736 256.5H767.5V288" stroke="#F1F5F9"/>
<path d="M768 256.5H799.5V288" stroke="#F1F5F9"/>
<path d="M800 256.5H831.5V288" stroke="#F1F5F9"/>
<path d="M832 256.5H863.5V288" stroke="#F1F5F9"/>
<path d="M864 256.5H895.5V288" stroke="#F1F5F9"/>
<path d="M896 256.5H927.5V288" stroke="#F1F5F9"/>
<path d="M928 256.5H959.5V288" stroke="#F1F5F9"/>
<path d="M960 256.5H991.5V288" stroke="#F1F5F9"/>
<path d="M992 256.5H1023.5V288" stroke="#F1F5F9"/>
<path d="M1024 256.5H1055.5V288" stroke="#F1F5F9"/>
<path d="M1056 256.5H1087.5V288" stroke="#F1F5F9"/>
<path d="M1088 256.5H1119.5V288" stroke="#F1F5F9"/>
<path d="M1120 256.5H1151.5V288" stroke="#F1F5F9"/>
<path d="M1152 256.5H1183.5V288" stroke="#F1F5F9"/>
<path d="M1184 256.5H1215.5V288" stroke="#F1F5F9"/>
<path d="M1216 256.5H1247.5V288" stroke="#F1F5F9"/>
<path d="M1248 256.5H1279.5V288" stroke="#F1F5F9"/>
<path d="M1280 256.5H1311.5V288" stroke="#F1F5F9"/>
<path d="M1312 256.5H1343.5V288" stroke="#F1F5F9"/>
<path d="M1344 256.5H1375.5V288" stroke="#F1F5F9"/>
<path d="M1376 256.5H1407.5V288" stroke="#F1F5F9"/>
<path d="M0 288.5H31.5V320" stroke="#F1F5F9"/>
<path d="M32 288.5H63.5V320" stroke="#F1F5F9"/>
<path d="M64 288.5H95.5V320" stroke="#F1F5F9"/>
<path d="M96 288.5H127.5V320" stroke="#F1F5F9"/>
<path d="M128 288.5H159.5V320" stroke="#F1F5F9"/>
<path d="M160 288.5H191.5V320" stroke="#F1F5F9"/>
<path d="M192 288.5H223.5V320" stroke="#F1F5F9"/>
<path d="M224 288.5H255.5V320" stroke="#F1F5F9"/>
<path d="M256 288.5H287.5V320" stroke="#F1F5F9"/>
<path d="M288 288.5H319.5V320" stroke="#F1F5F9"/>
<path d="M320 288.5H351.5V320" stroke="#F1F5F9"/>
<path d="M352 288.5H383.5V320" stroke="#F1F5F9"/>
<path d="M384 288.5H415.5V320" stroke="#F1F5F9"/>
<path d="M416 288.5H447.5V320" stroke="#F1F5F9"/>
<path d="M448 288.5H479.5V320" stroke="#F1F5F9"/>
<path d="M480 288.5H511.5V320" stroke="#F1F5F9"/>
<path d="M512 288.5H543.5V320" stroke="#F1F5F9"/>
<path d="M544 288.5H575.5V320" stroke="#F1F5F9"/>
<path d="M576 288.5H607.5V320" stroke="#F1F5F9"/>
<path d="M608 288.5H639.5V320" stroke="#F1F5F9"/>
<path d="M640 288.5H671.5V320" stroke="#F1F5F9"/>
<path d="M672 288.5H703.5V320" stroke="#F1F5F9"/>
<path d="M704 288.5H735.5V320" stroke="#F1F5F9"/>
<path d="M736 288.5H767.5V320" stroke="#F1F5F9"/>
<path d="M768 288.5H799.5V320" stroke="#F1F5F9"/>
<path d="M800 288.5H831.5V320" stroke="#F1F5F9"/>
<path d="M832 288.5H863.5V320" stroke="#F1F5F9"/>
<path d="M864 288.5H895.5V320" stroke="#F1F5F9"/>
<path d="M896 288.5H927.5V320" stroke="#F1F5F9"/>
<path d="M928 288.5H959.5V320" stroke="#F1F5F9"/>
<path d="M960 288.5H991.5V320" stroke="#F1F5F9"/>
<path d="M992 288.5H1023.5V320" stroke="#F1F5F9"/>
<path d="M1024 288.5H1055.5V320" stroke="#F1F5F9"/>
<path d="M1056 288.5H1087.5V320" stroke="#F1F5F9"/>
<path d="M1088 288.5H1119.5V320" stroke="#F1F5F9"/>
<path d="M1120 288.5H1151.5V320" stroke="#F1F5F9"/>
<path d="M1152 288.5H1183.5V320" stroke="#F1F5F9"/>
<path d="M1184 288.5H1215.5V320" stroke="#F1F5F9"/>
<path d="M1216 288.5H1247.5V320" stroke="#F1F5F9"/>
<path d="M1248 288.5H1279.5V320" stroke="#F1F5F9"/>
<path d="M1280 288.5H1311.5V320" stroke="#F1F5F9"/>
<path d="M1312 288.5H1343.5V320" stroke="#F1F5F9"/>
<path d="M1344 288.5H1375.5V320" stroke="#F1F5F9"/>
<path d="M1376 288.5H1407.5V320" stroke="#F1F5F9"/>
<path d="M0 320.5H31.5V352" stroke="#F1F5F9"/>
<path d="M32 320.5H63.5V352" stroke="#F1F5F9"/>
<path d="M64 320.5H95.5V352" stroke="#F1F5F9"/>
<path d="M96 320.5H127.5V352" stroke="#F1F5F9"/>
<path d="M128 320.5H159.5V352" stroke="#F1F5F9"/>
<path d="M160 320.5H191.5V352" stroke="#F1F5F9"/>
<path d="M192 320.5H223.5V352" stroke="#F1F5F9"/>
<path d="M224 320.5H255.5V352" stroke="#F1F5F9"/>
<path d="M256 320.5H287.5V352" stroke="#F1F5F9"/>
<path d="M288 320.5H319.5V352" stroke="#F1F5F9"/>
<path d="M320 320.5H351.5V352" stroke="#F1F5F9"/>
<path d="M352 320.5H383.5V352" stroke="#F1F5F9"/>
<path d="M384 320.5H415.5V352" stroke="#F1F5F9"/>
<path d="M416 320.5H447.5V352" stroke="#F1F5F9"/>
<path d="M448 320.5H479.5V352" stroke="#F1F5F9"/>
<path d="M480 320.5H511.5V352" stroke="#F1F5F9"/>
<path d="M512 320.5H543.5V352" stroke="#F1F5F9"/>
<path d="M544 320.5H575.5V352" stroke="#F1F5F9"/>
<path d="M576 320.5H607.5V352" stroke="#F1F5F9"/>
<path d="M608 320.5H639.5V352" stroke="#F1F5F9"/>
<path d="M640 320.5H671.5V352" stroke="#F1F5F9"/>
<path d="M672 320.5H703.5V352" stroke="#F1F5F9"/>
<path d="M704 320.5H735.5V352" stroke="#F1F5F9"/>
<path d="M736 320.5H767.5V352" stroke="#F1F5F9"/>
<path d="M768 320.5H799.5V352" stroke="#F1F5F9"/>
<path d="M800 320.5H831.5V352" stroke="#F1F5F9"/>
<path d="M832 320.5H863.5V352" stroke="#F1F5F9"/>
<path d="M864 320.5H895.5V352" stroke="#F1F5F9"/>
<path d="M896 320.5H927.5V352" stroke="#F1F5F9"/>
<path d="M928 320.5H959.5V352" stroke="#F1F5F9"/>
<path d="M960 320.5H991.5V352" stroke="#F1F5F9"/>
<path d="M992 320.5H1023.5V352" stroke="#F1F5F9"/>
<path d="M1024 320.5H1055.5V352" stroke="#F1F5F9"/>
<path d="M1056 320.5H1087.5V352" stroke="#F1F5F9"/>
<path d="M1088 320.5H1119.5V352" stroke="#F1F5F9"/>
<path d="M1120 320.5H1151.5V352" stroke="#F1F5F9"/>
<path d="M1152 320.5H1183.5V352" stroke="#F1F5F9"/>
<path d="M1184 320.5H1215.5V352" stroke="#F1F5F9"/>
<path d="M1216 320.5H1247.5V352" stroke="#F1F5F9"/>
<path d="M1248 320.5H1279.5V352" stroke="#F1F5F9"/>
<path d="M1280 320.5H1311.5V352" stroke="#F1F5F9"/>
<path d="M1312 320.5H1343.5V352" stroke="#F1F5F9"/>
<path d="M1344 320.5H1375.5V352" stroke="#F1F5F9"/>
<path d="M1376 320.5H1407.5V352" stroke="#F1F5F9"/>
<path d="M0 352.5H31.5V384" stroke="#F1F5F9"/>
<path d="M32 352.5H63.5V384" stroke="#F1F5F9"/>
<path d="M64 352.5H95.5V384" stroke="#F1F5F9"/>
<path d="M96 352.5H127.5V384" stroke="#F1F5F9"/>
<path d="M128 352.5H159.5V384" stroke="#F1F5F9"/>
<path d="M160 352.5H191.5V384" stroke="#F1F5F9"/>
<path d="M192 352.5H223.5V384" stroke="#F1F5F9"/>
<path d="M224 352.5H255.5V384" stroke="#F1F5F9"/>
<path d="M256 352.5H287.5V384" stroke="#F1F5F9"/>
<path d="M288 352.5H319.5V384" stroke="#F1F5F9"/>
<path d="M320 352.5H351.5V384" stroke="#F1F5F9"/>
<path d="M352 352.5H383.5V384" stroke="#F1F5F9"/>
<path d="M384 352.5H415.5V384" stroke="#F1F5F9"/>
<path d="M416 352.5H447.5V384" stroke="#F1F5F9"/>
<path d="M448 352.5H479.5V384" stroke="#F1F5F9"/>
<path d="M480 352.5H511.5V384" stroke="#F1F5F9"/>
<path d="M512 352.5H543.5V384" stroke="#F1F5F9"/>
<path d="M544 352.5H575.5V384" stroke="#F1F5F9"/>
<path d="M576 352.5H607.5V384" stroke="#F1F5F9"/>
<path d="M608 352.5H639.5V384" stroke="#F1F5F9"/>
<path d="M640 352.5H671.5V384" stroke="#F1F5F9"/>
<path d="M672 352.5H703.5V384" stroke="#F1F5F9"/>
<path d="M704 352.5H735.5V384" stroke="#F1F5F9"/>
<path d="M736 352.5H767.5V384" stroke="#F1F5F9"/>
<path d="M768 352.5H799.5V384" stroke="#F1F5F9"/>
<path d="M800 352.5H831.5V384" stroke="#F1F5F9"/>
<path d="M832 352.5H863.5V384" stroke="#F1F5F9"/>
<path d="M864 352.5H895.5V384" stroke="#F1F5F9"/>
<path d="M896 352.5H927.5V384" stroke="#F1F5F9"/>
<path d="M928 352.5H959.5V384" stroke="#F1F5F9"/>
<path d="M960 352.5H991.5V384" stroke="#F1F5F9"/>
<path d="M992 352.5H1023.5V384" stroke="#F1F5F9"/>
<path d="M1024 352.5H1055.5V384" stroke="#F1F5F9"/>
<path d="M1056 352.5H1087.5V384" stroke="#F1F5F9"/>
<path d="M1088 352.5H1119.5V384" stroke="#F1F5F9"/>
<path d="M1120 352.5H1151.5V384" stroke="#F1F5F9"/>
<path d="M1152 352.5H1183.5V384" stroke="#F1F5F9"/>
<path d="M1184 352.5H1215.5V384" stroke="#F1F5F9"/>
<path d="M1216 352.5H1247.5V384" stroke="#F1F5F9"/>
<path d="M1248 352.5H1279.5V384" stroke="#F1F5F9"/>
<path d="M1280 352.5H1311.5V384" stroke="#F1F5F9"/>
<path d="M1312 352.5H1343.5V384" stroke="#F1F5F9"/>
<path d="M1344 352.5H1375.5V384" stroke="#F1F5F9"/>
<path d="M1376 352.5H1407.5V384" stroke="#F1F5F9"/>
<path d="M0 384.5H31.5V416" stroke="#F1F5F9"/>
<path d="M32 384.5H63.5V416" stroke="#F1F5F9"/>
<path d="M64 384.5H95.5V416" stroke="#F1F5F9"/>
<path d="M96 384.5H127.5V416" stroke="#F1F5F9"/>
<path d="M128 384.5H159.5V416" stroke="#F1F5F9"/>
<path d="M160 384.5H191.5V416" stroke="#F1F5F9"/>
<path d="M192 384.5H223.5V416" stroke="#F1F5F9"/>
<path d="M224 384.5H255.5V416" stroke="#F1F5F9"/>
<path d="M256 384.5H287.5V416" stroke="#F1F5F9"/>
<path d="M288 384.5H319.5V416" stroke="#F1F5F9"/>
<path d="M320 384.5H351.5V416" stroke="#F1F5F9"/>
<path d="M352 384.5H383.5V416" stroke="#F1F5F9"/>
<path d="M384 384.5H415.5V416" stroke="#F1F5F9"/>
<path d="M416 384.5H447.5V416" stroke="#F1F5F9"/>
<path d="M448 384.5H479.5V416" stroke="#F1F5F9"/>
<path d="M480 384.5H511.5V416" stroke="#F1F5F9"/>
<path d="M512 384.5H543.5V416" stroke="#F1F5F9"/>
<path d="M544 384.5H575.5V416" stroke="#F1F5F9"/>
<path d="M576 384.5H607.5V416" stroke="#F1F5F9"/>
<path d="M608 384.5H639.5V416" stroke="#F1F5F9"/>
<path d="M640 384.5H671.5V416" stroke="#F1F5F9"/>
<path d="M672 384.5H703.5V416" stroke="#F1F5F9"/>
<path d="M704 384.5H735.5V416" stroke="#F1F5F9"/>
<path d="M736 384.5H767.5V416" stroke="#F1F5F9"/>
<path d="M768 384.5H799.5V416" stroke="#F1F5F9"/>
<path d="M800 384.5H831.5V416" stroke="#F1F5F9"/>
<path d="M832 384.5H863.5V416" stroke="#F1F5F9"/>
<path d="M864 384.5H895.5V416" stroke="#F1F5F9"/>
<path d="M896 384.5H927.5V416" stroke="#F1F5F9"/>
<path d="M928 384.5H959.5V416" stroke="#F1F5F9"/>
<path d="M960 384.5H991.5V416" stroke="#F1F5F9"/>
<path d="M992 384.5H1023.5V416" stroke="#F1F5F9"/>
<path d="M1024 384.5H1055.5V416" stroke="#F1F5F9"/>
<path d="M1056 384.5H1087.5V416" stroke="#F1F5F9"/>
<path d="M1088 384.5H1119.5V416" stroke="#F1F5F9"/>
<path d="M1120 384.5H1151.5V416" stroke="#F1F5F9"/>
<path d="M1152 384.5H1183.5V416" stroke="#F1F5F9"/>
<path d="M1184 384.5H1215.5V416" stroke="#F1F5F9"/>
<path d="M1216 384.5H1247.5V416" stroke="#F1F5F9"/>
<path d="M1248 384.5H1279.5V416" stroke="#F1F5F9"/>
<path d="M1280 384.5H1311.5V416" stroke="#F1F5F9"/>
<path d="M1312 384.5H1343.5V416" stroke="#F1F5F9"/>
<path d="M1344 384.5H1375.5V416" stroke="#F1F5F9"/>
<path d="M1376 384.5H1407.5V416" stroke="#F1F5F9"/>
<path d="M0 416.5H31.5V448" stroke="#F1F5F9"/>
<path d="M32 416.5H63.5V448" stroke="#F1F5F9"/>
<path d="M64 416.5H95.5V448" stroke="#F1F5F9"/>
<path d="M96 416.5H127.5V448" stroke="#F1F5F9"/>
<path d="M128 416.5H159.5V448" stroke="#F1F5F9"/>
<path d="M160 416.5H191.5V448" stroke="#F1F5F9"/>
<path d="M192 416.5H223.5V448" stroke="#F1F5F9"/>
<path d="M224 416.5H255.5V448" stroke="#F1F5F9"/>
<path d="M256 416.5H287.5V448" stroke="#F1F5F9"/>
<path d="M288 416.5H319.5V448" stroke="#F1F5F9"/>
<path d="M320 416.5H351.5V448" stroke="#F1F5F9"/>
<path d="M352 416.5H383.5V448" stroke="#F1F5F9"/>
<path d="M384 416.5H415.5V448" stroke="#F1F5F9"/>
<path d="M416 416.5H447.5V448" stroke="#F1F5F9"/>
<path d="M448 416.5H479.5V448" stroke="#F1F5F9"/>
<path d="M480 416.5H511.5V448" stroke="#F1F5F9"/>
<path d="M512 416.5H543.5V448" stroke="#F1F5F9"/>
<path d="M544 416.5H575.5V448" stroke="#F1F5F9"/>
<path d="M576 416.5H607.5V448" stroke="#F1F5F9"/>
<path d="M608 416.5H639.5V448" stroke="#F1F5F9"/>
<path d="M640 416.5H671.5V448" stroke="#F1F5F9"/>
<path d="M672 416.5H703.5V448" stroke="#F1F5F9"/>
<path d="M704 416.5H735.5V448" stroke="#F1F5F9"/>
<path d="M736 416.5H767.5V448" stroke="#F1F5F9"/>
<path d="M768 416.5H799.5V448" stroke="#F1F5F9"/>
<path d="M800 416.5H831.5V448" stroke="#F1F5F9"/>
<path d="M832 416.5H863.5V448" stroke="#F1F5F9"/>
<path d="M864 416.5H895.5V448" stroke="#F1F5F9"/>
<path d="M896 416.5H927.5V448" stroke="#F1F5F9"/>
<path d="M928 416.5H959.5V448" stroke="#F1F5F9"/>
<path d="M960 416.5H991.5V448" stroke="#F1F5F9"/>
<path d="M992 416.5H1023.5V448" stroke="#F1F5F9"/>
<path d="M1024 416.5H1055.5V448" stroke="#F1F5F9"/>
<path d="M1056 416.5H1087.5V448" stroke="#F1F5F9"/>
<path d="M1088 416.5H1119.5V448" stroke="#F1F5F9"/>
<path d="M1120 416.5H1151.5V448" stroke="#F1F5F9"/>
<path d="M1152 416.5H1183.5V448" stroke="#F1F5F9"/>
<path d="M1184 416.5H1215.5V448" stroke="#F1F5F9"/>
<path d="M1216 416.5H1247.5V448" stroke="#F1F5F9"/>
<path d="M1248 416.5H1279.5V448" stroke="#F1F5F9"/>
<path d="M1280 416.5H1311.5V448" stroke="#F1F5F9"/>
<path d="M1312 416.5H1343.5V448" stroke="#F1F5F9"/>
<path d="M1344 416.5H1375.5V448" stroke="#F1F5F9"/>
<path d="M1376 416.5H1407.5V448" stroke="#F1F5F9"/>
<path d="M0 448.5H31.5V480" stroke="#F1F5F9"/>
<path d="M32 448.5H63.5V480" stroke="#F1F5F9"/>
<path d="M64 448.5H95.5V480" stroke="#F1F5F9"/>
<path d="M96 448.5H127.5V480" stroke="#F1F5F9"/>
<path d="M128 448.5H159.5V480" stroke="#F1F5F9"/>
<path d="M160 448.5H191.5V480" stroke="#F1F5F9"/>
<path d="M192 448.5H223.5V480" stroke="#F1F5F9"/>
<path d="M224 448.5H255.5V480" stroke="#F1F5F9"/>
<path d="M256 448.5H287.5V480" stroke="#F1F5F9"/>
<path d="M288 448.5H319.5V480" stroke="#F1F5F9"/>
<path d="M320 448.5H351.5V480" stroke="#F1F5F9"/>
<path d="M352 448.5H383.5V480" stroke="#F1F5F9"/>
<path d="M384 448.5H415.5V480" stroke="#F1F5F9"/>
<path d="M416 448.5H447.5V480" stroke="#F1F5F9"/>
<path d="M448 448.5H479.5V480" stroke="#F1F5F9"/>
<path d="M480 448.5H511.5V480" stroke="#F1F5F9"/>
<path d="M512 448.5H543.5V480" stroke="#F1F5F9"/>
<path d="M544 448.5H575.5V480" stroke="#F1F5F9"/>
<path d="M576 448.5H607.5V480" stroke="#F1F5F9"/>
<path d="M608 448.5H639.5V480" stroke="#F1F5F9"/>
<path d="M640 448.5H671.5V480" stroke="#F1F5F9"/>
<path d="M672 448.5H703.5V480" stroke="#F1F5F9"/>
<path d="M704 448.5H735.5V480" stroke="#F1F5F9"/>
<path d="M736 448.5H767.5V480" stroke="#F1F5F9"/>
<path d="M768 448.5H799.5V480" stroke="#F1F5F9"/>
<path d="M800 448.5H831.5V480" stroke="#F1F5F9"/>
<path d="M832 448.5H863.5V480" stroke="#F1F5F9"/>
<path d="M864 448.5H895.5V480" stroke="#F1F5F9"/>
<path d="M896 448.5H927.5V480" stroke="#F1F5F9"/>
<path d="M928 448.5H959.5V480" stroke="#F1F5F9"/>
<path d="M960 448.5H991.5V480" stroke="#F1F5F9"/>
<path d="M992 448.5H1023.5V480" stroke="#F1F5F9"/>
<path d="M1024 448.5H1055.5V480" stroke="#F1F5F9"/>
<path d="M1056 448.5H1087.5V480" stroke="#F1F5F9"/>
<path d="M1088 448.5H1119.5V480" stroke="#F1F5F9"/>
<path d="M1120 448.5H1151.5V480" stroke="#F1F5F9"/>
<path d="M1152 448.5H1183.5V480" stroke="#F1F5F9"/>
<path d="M1184 448.5H1215.5V480" stroke="#F1F5F9"/>
<path d="M1216 448.5H1247.5V480" stroke="#F1F5F9"/>
<path d="M1248 448.5H1279.5V480" stroke="#F1F5F9"/>
<path d="M1280 448.5H1311.5V480" stroke="#F1F5F9"/>
<path d="M1312 448.5H1343.5V480" stroke="#F1F5F9"/>
<path d="M1344 448.5H1375.5V480" stroke="#F1F5F9"/>
<path d="M1376 448.5H1407.5V480" stroke="#F1F5F9"/>
<path d="M0 480.5H31.5V512" stroke="#F1F5F9"/>
<path d="M32 480.5H63.5V512" stroke="#F1F5F9"/>
<path d="M64 480.5H95.5V512" stroke="#F1F5F9"/>
<path d="M96 480.5H127.5V512" stroke="#F1F5F9"/>
<path d="M128 480.5H159.5V512" stroke="#F1F5F9"/>
<path d="M160 480.5H191.5V512" stroke="#F1F5F9"/>
<path d="M192 480.5H223.5V512" stroke="#F1F5F9"/>
<path d="M224 480.5H255.5V512" stroke="#F1F5F9"/>
<path d="M256 480.5H287.5V512" stroke="#F1F5F9"/>
<path d="M288 480.5H319.5V512" stroke="#F1F5F9"/>
<path d="M320 480.5H351.5V512" stroke="#F1F5F9"/>
<path d="M352 480.5H383.5V512" stroke="#F1F5F9"/>
<path d="M384 480.5H415.5V512" stroke="#F1F5F9"/>
<path d="M416 480.5H447.5V512" stroke="#F1F5F9"/>
<path d="M448 480.5H479.5V512" stroke="#F1F5F9"/>
<path d="M480 480.5H511.5V512" stroke="#F1F5F9"/>
<path d="M512 480.5H543.5V512" stroke="#F1F5F9"/>
<path d="M544 480.5H575.5V512" stroke="#F1F5F9"/>
<path d="M576 480.5H607.5V512" stroke="#F1F5F9"/>
<path d="M608 480.5H639.5V512" stroke="#F1F5F9"/>
<path d="M640 480.5H671.5V512" stroke="#F1F5F9"/>
<path d="M672 480.5H703.5V512" stroke="#F1F5F9"/>
<path d="M704 480.5H735.5V512" stroke="#F1F5F9"/>
<path d="M736 480.5H767.5V512" stroke="#F1F5F9"/>
<path d="M768 480.5H799.5V512" stroke="#F1F5F9"/>
<path d="M800 480.5H831.5V512" stroke="#F1F5F9"/>
<path d="M832 480.5H863.5V512" stroke="#F1F5F9"/>
<path d="M864 480.5H895.5V512" stroke="#F1F5F9"/>
<path d="M896 480.5H927.5V512" stroke="#F1F5F9"/>
<path d="M928 480.5H959.5V512" stroke="#F1F5F9"/>
<path d="M960 480.5H991.5V512" stroke="#F1F5F9"/>
<path d="M992 480.5H1023.5V512" stroke="#F1F5F9"/>
<path d="M1024 480.5H1055.5V512" stroke="#F1F5F9"/>
<path d="M1056 480.5H1087.5V512" stroke="#F1F5F9"/>
<path d="M1088 480.5H1119.5V512" stroke="#F1F5F9"/>
<path d="M1120 480.5H1151.5V512" stroke="#F1F5F9"/>
<path d="M1152 480.5H1183.5V512" stroke="#F1F5F9"/>
<path d="M1184 480.5H1215.5V512" stroke="#F1F5F9"/>
<path d="M1216 480.5H1247.5V512" stroke="#F1F5F9"/>
<path d="M1248 480.5H1279.5V512" stroke="#F1F5F9"/>
<path d="M1280 480.5H1311.5V512" stroke="#F1F5F9"/>
<path d="M1312 480.5H1343.5V512" stroke="#F1F5F9"/>
<path d="M1344 480.5H1375.5V512" stroke="#F1F5F9"/>
<path d="M1376 480.5H1407.5V512" stroke="#F1F5F9"/>
<path d="M0 512.5H31.5V544" stroke="#F1F5F9"/>
<path d="M32 512.5H63.5V544" stroke="#F1F5F9"/>
<path d="M64 512.5H95.5V544" stroke="#F1F5F9"/>
<path d="M96 512.5H127.5V544" stroke="#F1F5F9"/>
<path d="M128 512.5H159.5V544" stroke="#F1F5F9"/>
<path d="M160 512.5H191.5V544" stroke="#F1F5F9"/>
<path d="M192 512.5H223.5V544" stroke="#F1F5F9"/>
<path d="M224 512.5H255.5V544" stroke="#F1F5F9"/>
<path d="M256 512.5H287.5V544" stroke="#F1F5F9"/>
<path d="M288 512.5H319.5V544" stroke="#F1F5F9"/>
<path d="M320 512.5H351.5V544" stroke="#F1F5F9"/>
<path d="M352 512.5H383.5V544" stroke="#F1F5F9"/>
<path d="M384 512.5H415.5V544" stroke="#F1F5F9"/>
<path d="M416 512.5H447.5V544" stroke="#F1F5F9"/>
<path d="M448 512.5H479.5V544" stroke="#F1F5F9"/>
<path d="M480 512.5H511.5V544" stroke="#F1F5F9"/>
<path d="M512 512.5H543.5V544" stroke="#F1F5F9"/>
<path d="M544 512.5H575.5V544" stroke="#F1F5F9"/>
<path d="M576 512.5H607.5V544" stroke="#F1F5F9"/>
<path d="M608 512.5H639.5V544" stroke="#F1F5F9"/>
<path d="M640 512.5H671.5V544" stroke="#F1F5F9"/>
<path d="M672 512.5H703.5V544" stroke="#F1F5F9"/>
<path d="M704 512.5H735.5V544" stroke="#F1F5F9"/>
<path d="M736 512.5H767.5V544" stroke="#F1F5F9"/>
<path d="M768 512.5H799.5V544" stroke="#F1F5F9"/>
<path d="M800 512.5H831.5V544" stroke="#F1F5F9"/>
<path d="M832 512.5H863.5V544" stroke="#F1F5F9"/>
<path d="M864 512.5H895.5V544" stroke="#F1F5F9"/>
<path d="M896 512.5H927.5V544" stroke="#F1F5F9"/>
<path d="M928 512.5H959.5V544" stroke="#F1F5F9"/>
<path d="M960 512.5H991.5V544" stroke="#F1F5F9"/>
<path d="M992 512.5H1023.5V544" stroke="#F1F5F9"/>
<path d="M1024 512.5H1055.5V544" stroke="#F1F5F9"/>
<path d="M1056 512.5H1087.5V544" stroke="#F1F5F9"/>
<path d="M1088 512.5H1119.5V544" stroke="#F1F5F9"/>
<path d="M1120 512.5H1151.5V544" stroke="#F1F5F9"/>
<path d="M1152 512.5H1183.5V544" stroke="#F1F5F9"/>
<path d="M1184 512.5H1215.5V544" stroke="#F1F5F9"/>
<path d="M1216 512.5H1247.5V544" stroke="#F1F5F9"/>
<path d="M1248 512.5H1279.5V544" stroke="#F1F5F9"/>
<path d="M1280 512.5H1311.5V544" stroke="#F1F5F9"/>
<path d="M1312 512.5H1343.5V544" stroke="#F1F5F9"/>
<path d="M1344 512.5H1375.5V544" stroke="#F1F5F9"/>
<path d="M1376 512.5H1407.5V544" stroke="#F1F5F9"/>
<path d="M0 544.5H31.5V576" stroke="#F1F5F9"/>
<path d="M32 544.5H63.5V576" stroke="#F1F5F9"/>
<path d="M64 544.5H95.5V576" stroke="#F1F5F9"/>
<path d="M96 544.5H127.5V576" stroke="#F1F5F9"/>
<path d="M128 544.5H159.5V576" stroke="#F1F5F9"/>
<path d="M160 544.5H191.5V576" stroke="#F1F5F9"/>
<path d="M192 544.5H223.5V576" stroke="#F1F5F9"/>
<path d="M224 544.5H255.5V576" stroke="#F1F5F9"/>
<path d="M256 544.5H287.5V576" stroke="#F1F5F9"/>
<path d="M288 544.5H319.5V576" stroke="#F1F5F9"/>
<path d="M320 544.5H351.5V576" stroke="#F1F5F9"/>
<path d="M352 544.5H383.5V576" stroke="#F1F5F9"/>
<path d="M384 544.5H415.5V576" stroke="#F1F5F9"/>
<path d="M416 544.5H447.5V576" stroke="#F1F5F9"/>
<path d="M448 544.5H479.5V576" stroke="#F1F5F9"/>
<path d="M480 544.5H511.5V576" stroke="#F1F5F9"/>
<path d="M512 544.5H543.5V576" stroke="#F1F5F9"/>
<path d="M544 544.5H575.5V576" stroke="#F1F5F9"/>
<path d="M576 544.5H607.5V576" stroke="#F1F5F9"/>
<path d="M608 544.5H639.5V576" stroke="#F1F5F9"/>
<path d="M640 544.5H671.5V576" stroke="#F1F5F9"/>
<path d="M672 544.5H703.5V576" stroke="#F1F5F9"/>
<path d="M704 544.5H735.5V576" stroke="#F1F5F9"/>
<path d="M736 544.5H767.5V576" stroke="#F1F5F9"/>
<path d="M768 544.5H799.5V576" stroke="#F1F5F9"/>
<path d="M800 544.5H831.5V576" stroke="#F1F5F9"/>
<path d="M832 544.5H863.5V576" stroke="#F1F5F9"/>
<path d="M864 544.5H895.5V576" stroke="#F1F5F9"/>
<path d="M896 544.5H927.5V576" stroke="#F1F5F9"/>
<path d="M928 544.5H959.5V576" stroke="#F1F5F9"/>
<path d="M960 544.5H991.5V576" stroke="#F1F5F9"/>
<path d="M992 544.5H1023.5V576" stroke="#F1F5F9"/>
<path d="M1024 544.5H1055.5V576" stroke="#F1F5F9"/>
<path d="M1056 544.5H1087.5V576" stroke="#F1F5F9"/>
<path d="M1088 544.5H1119.5V576" stroke="#F1F5F9"/>
<path d="M1120 544.5H1151.5V576" stroke="#F1F5F9"/>
<path d="M1152 544.5H1183.5V576" stroke="#F1F5F9"/>
<path d="M1184 544.5H1215.5V576" stroke="#F1F5F9"/>
<path d="M1216 544.5H1247.5V576" stroke="#F1F5F9"/>
<path d="M1248 544.5H1279.5V576" stroke="#F1F5F9"/>
<path d="M1280 544.5H1311.5V576" stroke="#F1F5F9"/>
<path d="M1312 544.5H1343.5V576" stroke="#F1F5F9"/>
<path d="M1344 544.5H1375.5V576" stroke="#F1F5F9"/>
<path d="M1376 544.5H1407.5V576" stroke="#F1F5F9"/>
<path d="M0 576.5H31.5V608" stroke="#F1F5F9"/>
<path d="M32 576.5H63.5V608" stroke="#F1F5F9"/>
<path d="M64 576.5H95.5V608" stroke="#F1F5F9"/>
<path d="M96 576.5H127.5V608" stroke="#F1F5F9"/>
<path d="M128 576.5H159.5V608" stroke="#F1F5F9"/>
<path d="M160 576.5H191.5V608" stroke="#F1F5F9"/>
<path d="M192 576.5H223.5V608" stroke="#F1F5F9"/>
<path d="M224 576.5H255.5V608" stroke="#F1F5F9"/>
<path d="M256 576.5H287.5V608" stroke="#F1F5F9"/>
<path d="M288 576.5H319.5V608" stroke="#F1F5F9"/>
<path d="M320 576.5H351.5V608" stroke="#F1F5F9"/>
<path d="M352 576.5H383.5V608" stroke="#F1F5F9"/>
<path d="M384 576.5H415.5V608" stroke="#F1F5F9"/>
<path d="M416 576.5H447.5V608" stroke="#F1F5F9"/>
<path d="M448 576.5H479.5V608" stroke="#F1F5F9"/>
<path d="M480 576.5H511.5V608" stroke="#F1F5F9"/>
<path d="M512 576.5H543.5V608" stroke="#F1F5F9"/>
<path d="M544 576.5H575.5V608" stroke="#F1F5F9"/>
<path d="M576 576.5H607.5V608" stroke="#F1F5F9"/>
<path d="M608 576.5H639.5V608" stroke="#F1F5F9"/>
<path d="M640 576.5H671.5V608" stroke="#F1F5F9"/>
<path d="M672 576.5H703.5V608" stroke="#F1F5F9"/>
<path d="M704 576.5H735.5V608" stroke="#F1F5F9"/>
<path d="M736 576.5H767.5V608" stroke="#F1F5F9"/>
<path d="M768 576.5H799.5V608" stroke="#F1F5F9"/>
<path d="M800 576.5H831.5V608" stroke="#F1F5F9"/>
<path d="M832 576.5H863.5V608" stroke="#F1F5F9"/>
<path d="M864 576.5H895.5V608" stroke="#F1F5F9"/>
<path d="M896 576.5H927.5V608" stroke="#F1F5F9"/>
<path d="M928 576.5H959.5V608" stroke="#F1F5F9"/>
<path d="M960 576.5H991.5V608" stroke="#F1F5F9"/>
<path d="M992 576.5H1023.5V608" stroke="#F1F5F9"/>
<path d="M1024 576.5H1055.5V608" stroke="#F1F5F9"/>
<path d="M1056 576.5H1087.5V608" stroke="#F1F5F9"/>
<path d="M1088 576.5H1119.5V608" stroke="#F1F5F9"/>
<path d="M1120 576.5H1151.5V608" stroke="#F1F5F9"/>
<path d="M1152 576.5H1183.5V608" stroke="#F1F5F9"/>
<path d="M1184 576.5H1215.5V608" stroke="#F1F5F9"/>
<path d="M1216 576.5H1247.5V608" stroke="#F1F5F9"/>
<path d="M1248 576.5H1279.5V608" stroke="#F1F5F9"/>
<path d="M1280 576.5H1311.5V608" stroke="#F1F5F9"/>
<path d="M1312 576.5H1343.5V608" stroke="#F1F5F9"/>
<path d="M1344 576.5H1375.5V608" stroke="#F1F5F9"/>
<path d="M1376 576.5H1407.5V608" stroke="#F1F5F9"/>
<path d="M0 608.5H31.5V640" stroke="#F1F5F9"/>
<path d="M32 608.5H63.5V640" stroke="#F1F5F9"/>
<path d="M64 608.5H95.5V640" stroke="#F1F5F9"/>
<path d="M96 608.5H127.5V640" stroke="#F1F5F9"/>
<path d="M128 608.5H159.5V640" stroke="#F1F5F9"/>
<path d="M160 608.5H191.5V640" stroke="#F1F5F9"/>
<path d="M192 608.5H223.5V640" stroke="#F1F5F9"/>
<path d="M224 608.5H255.5V640" stroke="#F1F5F9"/>
<path d="M256 608.5H287.5V640" stroke="#F1F5F9"/>
<path d="M288 608.5H319.5V640" stroke="#F1F5F9"/>
<path d="M320 608.5H351.5V640" stroke="#F1F5F9"/>
<path d="M352 608.5H383.5V640" stroke="#F1F5F9"/>
<path d="M384 608.5H415.5V640" stroke="#F1F5F9"/>
<path d="M416 608.5H447.5V640" stroke="#F1F5F9"/>
<path d="M448 608.5H479.5V640" stroke="#F1F5F9"/>
<path d="M480 608.5H511.5V640" stroke="#F1F5F9"/>
<path d="M512 608.5H543.5V640" stroke="#F1F5F9"/>
<path d="M544 608.5H575.5V640" stroke="#F1F5F9"/>
<path d="M576 608.5H607.5V640" stroke="#F1F5F9"/>
<path d="M608 608.5H639.5V640" stroke="#F1F5F9"/>
<path d="M640 608.5H671.5V640" stroke="#F1F5F9"/>
<path d="M672 608.5H703.5V640" stroke="#F1F5F9"/>
<path d="M704 608.5H735.5V640" stroke="#F1F5F9"/>
<path d="M736 608.5H767.5V640" stroke="#F1F5F9"/>
<path d="M768 608.5H799.5V640" stroke="#F1F5F9"/>
<path d="M800 608.5H831.5V640" stroke="#F1F5F9"/>
<path d="M832 608.5H863.5V640" stroke="#F1F5F9"/>
<path d="M864 608.5H895.5V640" stroke="#F1F5F9"/>
<path d="M896 608.5H927.5V640" stroke="#F1F5F9"/>
<path d="M928 608.5H959.5V640" stroke="#F1F5F9"/>
<path d="M960 608.5H991.5V640" stroke="#F1F5F9"/>
<path d="M992 608.5H1023.5V640" stroke="#F1F5F9"/>
<path d="M1024 608.5H1055.5V640" stroke="#F1F5F9"/>
<path d="M1056 608.5H1087.5V640" stroke="#F1F5F9"/>
<path d="M1088 608.5H1119.5V640" stroke="#F1F5F9"/>
<path d="M1120 608.5H1151.5V640" stroke="#F1F5F9"/>
<path d="M1152 608.5H1183.5V640" stroke="#F1F5F9"/>
<path d="M1184 608.5H1215.5V640" stroke="#F1F5F9"/>
<path d="M1216 608.5H1247.5V640" stroke="#F1F5F9"/>
<path d="M1248 608.5H1279.5V640" stroke="#F1F5F9"/>
<path d="M1280 608.5H1311.5V640" stroke="#F1F5F9"/>
<path d="M1312 608.5H1343.5V640" stroke="#F1F5F9"/>
<path d="M1344 608.5H1375.5V640" stroke="#F1F5F9"/>
<path d="M1376 608.5H1407.5V640" stroke="#F1F5F9"/>
<path d="M0 640.5H31.5V672" stroke="#F1F5F9"/>
<path d="M32 640.5H63.5V672" stroke="#F1F5F9"/>
<path d="M64 640.5H95.5V672" stroke="#F1F5F9"/>
<path d="M96 640.5H127.5V672" stroke="#F1F5F9"/>
<path d="M128 640.5H159.5V672" stroke="#F1F5F9"/>
<path d="M160 640.5H191.5V672" stroke="#F1F5F9"/>
<path d="M192 640.5H223.5V672" stroke="#F1F5F9"/>
<path d="M224 640.5H255.5V672" stroke="#F1F5F9"/>
<path d="M256 640.5H287.5V672" stroke="#F1F5F9"/>
<path d="M288 640.5H319.5V672" stroke="#F1F5F9"/>
<path d="M320 640.5H351.5V672" stroke="#F1F5F9"/>
<path d="M352 640.5H383.5V672" stroke="#F1F5F9"/>
<path d="M384 640.5H415.5V672" stroke="#F1F5F9"/>
<path d="M416 640.5H447.5V672" stroke="#F1F5F9"/>
<path d="M448 640.5H479.5V672" stroke="#F1F5F9"/>
<path d="M480 640.5H511.5V672" stroke="#F1F5F9"/>
<path d="M512 640.5H543.5V672" stroke="#F1F5F9"/>
<path d="M544 640.5H575.5V672" stroke="#F1F5F9"/>
<path d="M576 640.5H607.5V672" stroke="#F1F5F9"/>
<path d="M608 640.5H639.5V672" stroke="#F1F5F9"/>
<path d="M640 640.5H671.5V672" stroke="#F1F5F9"/>
<path d="M672 640.5H703.5V672" stroke="#F1F5F9"/>
<path d="M704 640.5H735.5V672" stroke="#F1F5F9"/>
<path d="M736 640.5H767.5V672" stroke="#F1F5F9"/>
<path d="M768 640.5H799.5V672" stroke="#F1F5F9"/>
<path d="M800 640.5H831.5V672" stroke="#F1F5F9"/>
<path d="M832 640.5H863.5V672" stroke="#F1F5F9"/>
<path d="M864 640.5H895.5V672" stroke="#F1F5F9"/>
<path d="M896 640.5H927.5V672" stroke="#F1F5F9"/>
<path d="M928 640.5H959.5V672" stroke="#F1F5F9"/>
<path d="M960 640.5H991.5V672" stroke="#F1F5F9"/>
<path d="M992 640.5H1023.5V672" stroke="#F1F5F9"/>
<path d="M1024 640.5H1055.5V672" stroke="#F1F5F9"/>
<path d="M1056 640.5H1087.5V672" stroke="#F1F5F9"/>
<path d="M1088 640.5H1119.5V672" stroke="#F1F5F9"/>
<path d="M1120 640.5H1151.5V672" stroke="#F1F5F9"/>
<path d="M1152 640.5H1183.5V672" stroke="#F1F5F9"/>
<path d="M1184 640.5H1215.5V672" stroke="#F1F5F9"/>
<path d="M1216 640.5H1247.5V672" stroke="#F1F5F9"/>
<path d="M1248 640.5H1279.5V672" stroke="#F1F5F9"/>
<path d="M1280 640.5H1311.5V672" stroke="#F1F5F9"/>
<path d="M1312 640.5H1343.5V672" stroke="#F1F5F9"/>
<path d="M1344 640.5H1375.5V672" stroke="#F1F5F9"/>
<path d="M1376 640.5H1407.5V672" stroke="#F1F5F9"/>
</g>
<defs>
<clipPath id="clip0_234_3441">
<rect width="1440" height="654" fill="white"/>
</clipPath>
</defs>
</svg>
